<svg width="21" height="21" viewBox="0 0 21 21" fill="none" xmlns="http://www.w3.org/2000/svg">
<path d="M10.4167 15.625C10.7118 15.625 10.9594 15.525 11.1594 15.325C11.3594 15.125 11.459 14.8778 11.4583 14.5833C11.4583 14.2882 11.3583 14.0406 11.1583 13.8406C10.9583 13.6406 10.7111 13.541 10.4167 13.5417C10.1215 13.5417 9.87396 13.6417 9.67396 13.8417C9.47396 14.0417 9.37431 14.2889 9.375 14.5833C9.375 14.8785 9.475 15.126 9.675 15.326C9.875 15.526 10.1222 15.6257 10.4167 15.625ZM9.375 11.4583H11.4583V5.20833H9.375V11.4583ZM10.4167 20.8333C8.97569 20.8333 7.62153 20.5597 6.35417 20.0125C5.08681 19.4653 3.98437 18.7233 3.04688 17.7865C2.10938 16.849 1.36736 15.7465 0.820833 14.4792C0.274306 13.2118 0.000694444 11.8576 0 10.4167C0 8.97569 0.273611 7.62153 0.820833 6.35417C1.36806 5.08681 2.11007 3.98437 3.04688 3.04688C3.98437 2.10938 5.08681 1.36736 6.35417 0.820833C7.62153 0.274306 8.97569 0.000694444 10.4167 0C11.8576 0 13.2118 0.273611 14.4792 0.820833C15.7465 1.36806 16.849 2.11007 17.7865 3.04688C18.724 3.98437 19.4663 5.08681 20.0135 6.35417C20.5608 7.62153 20.834 8.97569 20.8333 10.4167C20.8333 11.8576 20.5597 13.2118 20.0125 14.4792C19.4653 15.7465 18.7233 16.849 17.7865 17.7865C16.849 18.724 15.7465 19.4663 14.4792 20.0135C13.2118 20.5608 11.8576 20.834 10.4167 20.8333Z" fill="#812435"/>
</svg>
