<svg width="168" height="168" viewBox="0 0 168 168" fill="none" xmlns="http://www.w3.org/2000/svg">
<path opacity="0.5" d="M83.75 0C67.1859 0 50.9937 4.91185 37.221 14.1144C23.4484 23.317 12.714 36.3969 6.37513 51.7003C0.0362878 67.0036 -1.62224 83.8429 1.60927 100.089C4.84078 116.335 12.8172 131.258 24.5298 142.97C36.2425 154.683 51.1653 162.659 67.4112 165.891C83.6571 169.122 100.496 167.464 115.8 161.125C131.103 154.786 144.183 144.052 153.386 130.279C162.588 116.506 167.5 100.314 167.5 83.75C167.5 72.7518 165.334 61.8613 161.125 51.7003C156.916 41.5392 150.747 32.3067 142.97 24.5298C135.193 16.7529 125.961 10.5839 115.8 6.37509C105.639 2.16626 94.7483 0 83.75 0ZM83.75 150.75C70.4987 150.75 57.5449 146.821 46.5268 139.458C35.5087 132.096 26.9212 121.632 21.8501 109.39C16.779 97.1471 15.4522 83.6757 18.0374 70.6789C20.6226 57.6822 27.0038 45.744 36.3739 36.3738C45.744 27.0037 57.6823 20.6226 70.679 18.0374C83.6757 15.4522 97.1472 16.779 109.39 21.8501C121.632 26.9211 132.096 35.5087 139.459 46.5268C146.821 57.5449 150.75 70.4987 150.75 83.75C150.75 101.52 143.691 118.561 131.126 131.126C118.561 143.691 101.52 150.75 83.75 150.75Z" fill="#106D57"/>
<path d="M150.75 83.75H167.5C167.5 72.7518 165.334 61.8613 161.125 51.7003C156.916 41.5392 150.747 32.3067 142.97 24.5298C135.193 16.7529 125.961 10.5839 115.8 6.37509C105.639 2.16626 94.7482 0 83.75 0V16.75C101.52 16.75 118.561 23.8089 131.126 36.3738C143.691 48.9388 150.75 65.9805 150.75 83.75Z" fill="#64FFDA"/>
</svg>
