<svg width="22" height="22" viewBox="0 0 22 22" fill="none" xmlns="http://www.w3.org/2000/svg">
<path d="M21.875 1.10469L20.7703 0L0 20.7703L1.10469 21.875L2.66719 20.3125H18.75C19.1642 20.3119 19.5613 20.1471 19.8542 19.8542C20.1471 19.5613 20.3119 19.1642 20.3125 18.75V2.66719L21.875 1.10469ZM18.75 18.75H4.22969L10.318 12.6617L12.1766 14.5203C12.4696 14.8132 12.8669 14.9778 13.2812 14.9778C13.6956 14.9778 14.0929 14.8132 14.3859 14.5203L15.625 13.2812L18.75 16.4039V18.75ZM18.75 14.1937L16.7297 12.1734C16.4367 11.8805 16.0393 11.716 15.625 11.716C15.2107 11.716 14.8133 11.8805 14.5203 12.1734L13.2812 13.4125L11.4242 11.5555L18.75 4.22969V14.1937ZM3.125 15.625V13.2812L7.03125 9.37734L8.10391 10.4508L9.21016 9.34453L8.13594 8.27031C7.84293 7.97739 7.44557 7.81283 7.03125 7.81283C6.61693 7.81283 6.21957 7.97739 5.92656 8.27031L3.125 11.0719V3.125H15.625V1.5625H3.125C2.71073 1.56291 2.31354 1.72767 2.0206 2.0206C1.72767 2.31354 1.56291 2.71073 1.5625 3.125V15.625H3.125Z" fill="#7C7E7E"/>
</svg>
